<svg width="3487" height="3335" viewBox="0 0 3487 3335" fill="none" xmlns="http://www.w3.org/2000/svg">
<mask id="mask0_1_42" style="mask-type:alpha" maskUnits="userSpaceOnUse" x="1197" y="2379" width="1110" height="956">
<path fill-rule="evenodd" clip-rule="evenodd" d="M1218.9 2388.79C1210.23 2394.07 1203.25 2402.71 1201.62 2410.18C1200.11 2417.07 1198.14 2425.07 1197.28 2427.94C1194.93 2435.75 1210.07 2482.56 1223.45 2508.84C1242.64 2546.51 1276.04 2578.27 1360.67 2639.32C1404.7 2671.07 1458.98 2710.59 1481.29 2727.12C1503.6 2743.65 1549.24 2776.9 1582.71 2801.02C1616.17 2825.13 1644.12 2846.4 1644.81 2848.28C1645.5 2850.17 1595.89 2898.16 1534.55 2954.94C1325.28 3148.68 1311.99 3161.47 1309.47 3171.52C1307.82 3178.04 1302.27 3182.63 1293.73 3184.5C1286.48 3186.09 1270.21 3196.89 1257.58 3208.51L1234.62 3229.63L1249.99 3249.82C1271.99 3278.71 1278.82 3278 1314.13 3243.21C1330.61 3226.97 1346.82 3213.68 1350.15 3213.68C1353.48 3213.68 1395.51 3184.9 1443.54 3149.76C1570.08 3057.14 1742.48 2931.81 1748.35 2928.18C1751.17 2926.43 1782.89 2946.77 1820.16 2974.21C2026.18 3125.92 2149.76 3213.7 2160.72 3216.14C2167.53 3217.66 2173.11 3220.96 2173.11 3223.48C2173.11 3230.71 2219.59 3272.1 2227.8 3272.19C2236.15 3272.27 2267.76 3239.22 2267.76 3230.39C2267.76 3222.53 2230.87 3192.22 2211.4 3184.08C2202.73 3180.46 2195.65 3174.61 2195.65 3171.06C2195.65 3167.53 2124.14 3098.29 2036.78 3017.19C1949.39 2936.11 1873.07 2865.18 1867.14 2859.6L1856.4 2849.43L1930.24 2795.07C1970.87 2765.18 2050.65 2706.96 2107.56 2665.69C2242.59 2567.77 2242.39 2567.93 2267.67 2530.14C2324.79 2444.75 2315.22 2379.91 2245.49 2379.91C2182.76 2379.91 2126.02 2405.66 2068.07 2460.47C2045.28 2482.01 1989.23 2534.05 1943.49 2576.1C1897.76 2618.16 1836.97 2674.43 1808.39 2701.14C1779.82 2727.87 1754 2749.17 1751.02 2748.48C1748.04 2747.78 1696.46 2701.58 1636.39 2645.81C1425.54 2450.05 1393.58 2421.8 1367.07 2407.67C1316.58 2380.77 1246.66 2371.86 1218.9 2388.79ZM1200.37 3120.39C1190.64 3132.09 1228.52 3177.49 1248.06 3177.59C1256.93 3177.64 1254.69 3164.35 1242.29 3143.17C1226.95 3116.99 1210.56 3108.09 1200.37 3120.39ZM2271.99 3128.99C2238.05 3173.63 2243.78 3193.8 2281.82 3163.66C2302.82 3147.05 2309.81 3135.36 2306.01 3123.37C2301.64 3109.59 2284.58 3112.4 2271.99 3128.99ZM1321.31 3273.89C1321.31 3281.91 1352.97 3329.93 1360.03 3332.64C1372.98 3337.62 1381.85 3323.95 1375.56 3308.73C1364.99 3283.23 1321.31 3255.17 1321.31 3273.89ZM2148.22 3286.36C2133.5 3299.92 2128.04 3308.4 2128.04 3317.65C2128.04 3344.17 2146.56 3338.17 2168.05 3304.69C2193.43 3265.13 2182.35 3254.89 2148.22 3286.36Z" fill="#F9F8F8"/>
</mask>
<g mask="url(#mask0_1_42)">
<path fill-rule="evenodd" clip-rule="evenodd" d="M1089.97 2418.64L1146.08 2392.46C1203.88 2367.82 1317.79 2318.53 1431.71 2306.21C1545.62 2293.89 1659.53 2318.53 1773.44 2312.37C1885.65 2306.21 1999.57 2269.25 2113.48 2293.89C2227.39 2318.53 2341.3 2404.78 2399.11 2449.44L2455.22 2492.56V2603.45H2399.11C2341.3 2603.45 2227.39 2603.45 2113.48 2603.45C1999.57 2603.45 1885.65 2603.45 1773.44 2603.45C1659.53 2603.45 1545.62 2603.45 1431.71 2603.45C1317.79 2603.45 1203.88 2603.45 1146.08 2603.45H1089.97V2418.64Z" fill="#FF5C5C"/>
<path fill-rule="evenodd" clip-rule="evenodd" d="M1089.97 2423.23L1146.08 2464.04C1203.88 2504.84 1317.79 2588.15 1431.71 2588.15C1545.62 2588.15 1659.53 2504.84 1773.44 2477.64C1885.65 2450.43 1999.57 2477.64 2113.48 2491.24C2227.39 2504.84 2341.3 2504.84 2399.11 2504.84H2455.22V2792.17H2399.11C2341.3 2792.17 2227.39 2792.17 2113.48 2792.17C1999.57 2792.17 1885.65 2792.17 1773.44 2792.17C1659.53 2792.17 1545.62 2792.17 1431.71 2792.17C1317.79 2792.17 1203.88 2792.17 1146.08 2792.17H1089.97V2423.23Z" fill="#F79454"/>
<path fill-rule="evenodd" clip-rule="evenodd" d="M1089.97 2603.45L1146.08 2622.88C1203.88 2642.31 1317.79 2681.17 1431.71 2681.17C1545.62 2681.17 1659.53 2642.31 1773.44 2632.6C1885.65 2622.88 1999.57 2642.31 2113.48 2676.32C2227.39 2710.32 2341.3 2760.11 2399.11 2784.4L2455.22 2808.69V2866.98H2399.11C2341.3 2866.98 2227.39 2866.98 2113.48 2866.98C1999.57 2866.98 1885.65 2866.98 1773.44 2866.98C1659.53 2866.98 1545.62 2866.98 1431.71 2866.98C1317.79 2866.98 1203.88 2866.98 1146.08 2866.98H1089.97V2603.45Z" fill="#FFDB5C"/>
<path fill-rule="evenodd" clip-rule="evenodd" d="M1089.97 2771.77L1146.85 2785.81C1203.74 2799.85 1317.51 2827.94 1431.28 2827.94C1545.05 2827.94 1658.82 2799.85 1772.59 2806.87C1886.36 2813.9 2000.13 2856.02 2113.9 2856.02C2227.68 2856.02 2341.45 2813.9 2398.33 2792.83L2455.22 2771.77V3150.91H2398.33C2341.45 3150.91 2227.68 3150.91 2113.9 3150.91C2000.13 3150.91 1886.36 3150.91 1772.59 3150.91C1658.82 3150.91 1545.05 3150.91 1431.28 3150.91C1317.51 3150.91 1203.74 3150.91 1146.85 3150.91H1089.97V2771.77Z" fill="#5CFF9D"/>
<path fill-rule="evenodd" clip-rule="evenodd" d="M2455.22 2975.79L2399.11 2989.07C2341.3 3002.35 2227.39 3028.91 2113.48 3022.27C1999.57 3015.63 1885.66 2975.79 1771.74 2975.79C1659.53 2975.79 1545.62 3015.63 1431.71 3035.55C1317.79 3057.13 1203.88 3057.13 1146.08 3057.13H1089.97V3256.32H1146.08C1203.88 3256.32 1317.79 3256.32 1431.71 3256.32C1545.62 3256.32 1659.53 3256.32 1771.74 3256.32C1885.66 3256.32 1999.57 3256.32 2113.48 3256.32C2227.39 3256.32 2341.3 3256.32 2399.11 3256.32H2455.22V2975.79Z" fill="#5C6CFF"/>
<path fill-rule="evenodd" clip-rule="evenodd" d="M1089.97 3144.11L1228.53 3072.7C1272.74 3144.11 1317.79 3180.16 1431.71 3184.67C1545.62 3189.18 1659.53 3156.86 1773.44 3156.86C1885.65 3156.86 1999.57 3189.18 2113.48 3184.67C2227.39 3180.16 2377.86 3144.11 2430.56 3122.86L2455.22 3144.11V3334.53H2399.11C2341.3 3334.53 2227.39 3334.53 2113.48 3334.53C1999.57 3334.53 1885.65 3334.53 1773.44 3334.53C1659.53 3334.53 1545.62 3334.53 1431.71 3334.53C1317.79 3334.53 1203.88 3334.53 1146.08 3334.53H1089.97V3144.11Z" fill="#B75CFF"/>
</g>
<path fill-rule="evenodd" clip-rule="evenodd" d="M1543.9 7.32901C1056.81 54.086 698.438 409.826 628.757 915.76C625.065 942.542 620.825 970.55 619.339 977.978C615.07 999.265 620.781 990.943 695.164 867.56C794.571 702.627 862.722 592.874 864.568 594.72C865.448 595.6 842.039 642.645 812.528 699.267C783.032 755.889 749.064 822.491 737.035 847.283C601.526 1126.64 514.696 1234.74 363.912 1311.81C245.812 1372.18 117.918 1397.49 61.3204 1371.71C18.2949 1352.11 74.5613 1409.48 121.207 1432.77C290.309 1517.23 497.085 1506.78 652.47 1405.93C802.706 1308.41 1060.14 1022.24 1095.73 913.164C1165.37 699.829 1277.31 531.68 1434.11 404.836C1496.59 354.315 1506.79 351.935 1457.81 399.327C1133.99 712.694 1046.16 1056.18 1207.98 1376.41C1238.54 1436.89 1251.48 1452.99 1237.34 1412.91C1182.61 1257.78 1192.66 1083.81 1270.37 840.793L1292.63 771.22L1283.47 750.653C1259.12 696.007 1283.28 638.708 1347.77 598.095C1361.4 589.513 1382.99 571.082 1395.74 557.135C1418.88 531.839 1432.02 527.238 1417.38 549.564C1406.84 565.673 1411.16 567.966 1439.87 561.548C1534.12 540.463 1686.71 569.337 1769.55 623.954L1783.41 633.083L1803.9 620.089C1864.6 581.596 1955.42 559.529 2050.92 560.063C2281.97 561.361 2375.93 763.936 2176.55 830.913L2138.82 843.591L2133.67 890.506C2121.09 1005.02 2118.52 1071.32 2124.18 1135.73L2129.72 1198.83L2132.77 1133.48C2137.75 1026.98 2157.19 930.153 2184.58 875.449C2199.12 846.417 2200.16 847.167 2222.31 902.491C2270.48 1022.73 2337.1 1175.1 2356.81 1210.09C2368.69 1231.16 2379.76 1252.09 2381.41 1256.6C2384.41 1264.75 2430.2 1243.77 2488.14 1207.7C2519.28 1188.31 2626.51 1133.48 2633.27 1133.48C2645.04 1133.48 2663.92 1151.49 2663.92 1162.73C2663.92 1177.76 2668.42 1187.56 2675.34 1187.56C2684.72 1187.56 2699.98 1210.03 2699.98 1223.83C2699.98 1246.87 2654.3 1277.8 2501.86 1357.96C2459.87 1380.04 2460.35 1377.03 2491.79 1421.1C2573.1 1535.05 2647.77 1589.96 2781.11 1633.82C3005.96 1707.76 3198.85 1695.37 3318.52 1599.28C3362.43 1564.01 3365.7 1555.82 3332.05 1565.34C3257.13 1586.54 3147.98 1569.13 3067.16 1523.08C2892.2 1423.4 2780.72 1264.88 2688.54 984.742C2561.92 599.941 2493.52 476.962 2340.31 358.627C2299.37 326.999 2338.08 343.902 2407.01 387.76C2522.2 461.04 2651 700.147 2742.86 1011.28C2770.15 1103.74 2810.61 1191.28 2884.33 1317.48C2906.76 1355.88 2909.77 1355.52 2908.14 1314.62C2890.2 864.82 2699.35 405.182 2460.61 236.759C2199.7 52.6872 1886.91 -25.5971 1543.9 7.32901ZM1466.38 588.158C1296.86 612.95 1244.89 746.875 1385.95 795.406C1462.8 821.842 1600.67 823.991 1677.94 799.949C1697.44 793.877 1703.86 793.286 1703.86 797.54C1703.86 803.814 1637.86 884.781 1605.41 918.312L1584.65 939.773L1603.49 958.623L1622.34 977.473L1632.13 968.704C1648.34 954.195 1718.36 872.305 1748.47 832.63C1780.35 790.632 1781.89 789.853 1792.25 810.102C1800.53 826.255 1814.06 843.288 1883.49 925.019C1936.4 987.309 1932.47 985.016 1953.85 966.252C1974.76 947.893 1974.13 943.667 1945.95 913.423C1909.73 874.57 1868.53 826.298 1859.04 811.588L1850.55 798.42L1863.98 801.276C1871.35 802.848 1891.48 807.145 1908.72 810.852C2073.05 846.114 2253.76 797.843 2253.76 718.679C2253.76 579.576 1948.15 541.401 1797.51 661.668L1780.75 675.052L1762.72 658.769C1706.59 608.046 1563.5 573.966 1466.38 588.158ZM1564.24 642.371C1650.98 652.986 1745.88 693.556 1737.14 716.314C1723.03 753.062 1543.64 774.667 1434.23 752.802C1277.15 721.405 1394.62 621.632 1564.24 642.371ZM2110.42 650.88C2268.59 691.335 2209.33 764.211 2017.11 765.624C1931.1 766.258 1820.73 740.702 1821.11 720.237C1821.99 673.653 2016.82 626.939 2110.42 650.88ZM1458.16 675.513C1375.75 695.532 1383.89 717.41 1477.87 728.501C1556.47 737.76 1694.53 723.482 1681.24 707.473C1660.36 682.306 1515.55 661.567 1458.16 675.513ZM1976.55 680.316C1906.7 691.291 1864.65 708.396 1883.19 718.319C1933.37 745.173 2163.61 737.803 2163.61 709.348C2163.61 684.138 2057.25 667.639 1976.55 680.316ZM1288.48 870.935C1235.08 1005.42 1226.08 1045.96 1226.08 1151.95C1226.08 1252.48 1244.15 1354.14 1280.44 1457.75C1287.87 1478.94 1295.14 1499.83 1296.6 1504.17C1306.22 1532.83 1244.24 1475.42 1213.14 1426.86C1139.9 1312.5 1099.8 1185.01 1093.57 1046.69C1092.71 1027.46 1090.21 1011.91 1088.05 1012.13C1081.07 1012.82 1015.91 1114.63 992.13 1161.99L969.11 1207.84L966.24 1302.48C955.494 1657.71 1032.88 1851.07 1225.17 1949.49C1265.01 1969.87 1264.35 1970.42 1195.6 1973.88C1131.72 1977.08 1079.64 1972.9 1024.4 1960.08C987.803 1951.6 988.048 1951.24 1006.6 1986.8C1099.02 2164.08 1278.09 2268.01 1624.99 2345.76C1739.8 2371.49 1822.64 2361.22 2026.17 2296.03C2217.06 2234.88 2423.22 2068 2484.26 1925.22C2504.89 1876.96 2504.8 1876.75 2471.42 1894.04C2424.62 1918.28 2307.04 1954.48 2299.58 1946.95C2297.92 1945.28 2306.71 1935.65 2319.11 1925.52C2420.11 1843.11 2503.16 1713.54 2544.42 1574.01L2552.1 1548.08L2521.24 1515.01C2422.24 1408.9 2257.77 1094.45 2202.04 904.741C2188.13 857.436 2163.86 987.02 2156.66 1146.99C2152.49 1239.4 2164.61 1357.54 2186.79 1440.88C2210.72 1530.75 2166.34 1448.86 2137.37 1349.7C2103.77 1234.58 2098.58 1194.02 2098.4 1044.84C2098.32 972.54 2097.55 914.072 2096.7 914.938C2095.85 915.789 2091.31 938.432 2086.62 965.257C2060.67 1113.53 2077.14 1325.54 2127.32 1489.13C2137.42 1522.09 2136.57 1525.58 2118.41 1525.58C2111.18 1525.58 2084.43 1528.52 2058.94 1532.11C1816.62 1566.28 1851.77 1571.8 1766.85 1486.15C1650.71 1368.99 1615.03 1307.43 1552.37 1116C1524.5 1030.86 1521.76 1025.72 1525.8 1065.9C1540.11 1208.55 1589.4 1329.84 1700.2 1495.16C1734.99 1547.08 1725.15 1546.32 1671.12 1492.9C1529.83 1353.25 1372.19 1045.24 1338.4 842.769C1327.54 777.796 1324.88 779.296 1288.48 870.935ZM1381.15 868.685C1388.45 966.122 1422.31 1064.8 1494.95 1200.28C1522.9 1252.42 1527.73 1255.33 1517.33 1213.77C1490.64 1107.17 1479.04 925.596 1494.6 858.071C1497.29 846.446 1497.03 846.317 1464.24 843.331C1446.04 841.673 1420 837.346 1406.37 833.711C1392.73 830.077 1380.77 827.077 1379.81 827.048C1378.83 827.019 1379.43 845.754 1381.15 868.685ZM1521.82 855.172C1566.61 1155.29 1655.18 1354.01 1806.71 1494.38C1854.14 1538.31 1859.65 1538.89 2043.54 1518.87C2113.53 1511.24 2107.72 1517.54 2094.09 1464.14C2026.33 1198.7 2026.18 1021.76 2093.6 857.753C2096.43 850.874 2090.79 850.283 2029.86 851.004C1993.1 851.436 1955.21 850.138 1945.66 848.119C1922.51 843.216 1923.7 845.422 1973.42 898.914C2002.13 929.807 2014.23 945.931 2011.73 950.013C2009.74 953.272 1991.47 971.733 1971.13 991.03L1934.16 1026.09L1907.78 997.534C1852.38 937.523 1839.49 922.798 1810.64 886.54C1774.68 841.384 1783.44 840.302 1737.14 895.67C1682.6 960.873 1631.83 1016.3 1626.65 1016.3C1619.61 1016.3 1546.98 951.556 1546.51 944.864C1546.28 941.532 1564.36 919.019 1586.67 894.847C1636.53 840.793 1637.63 845.033 1573.76 845.033C1520.88 845.033 1520.32 845.134 1521.82 855.172ZM2611.97 1166.68C2607.08 1170.07 2558.46 1197.77 2503.91 1228.25C2449.37 1258.74 2403.04 1285.16 2400.95 1286.96C2394.97 1292.14 2411.97 1314.69 2420.13 1312.4C2425.56 1310.87 2595.78 1213.03 2636.67 1187.94C2642.01 1184.66 2642.24 1181.74 2637.9 1172.22C2631.92 1159.09 2625.04 1157.62 2611.97 1166.68ZM2539.97 1267C2414.58 1337.55 2421.49 1332.46 2431.23 1347.32C2441.76 1363.38 2437.34 1365.14 2550.45 1299.55C2667.73 1231.54 2671.49 1228.74 2664.21 1215.15C2656.74 1201.18 2657.56 1200.83 2539.97 1267ZM809.211 1354.56L687.591 1475.53L700.284 1501.68C733.357 1569.8 818.384 1718.37 863.573 1786.98C928.508 1885.6 1000.03 1931.71 1115.12 1949.16C1159.72 1955.91 1161.03 1953.96 1125.37 1934.03C986.49 1856.37 941.215 1725.02 933.902 1378.46L930.844 1233.58L809.211 1354.56ZM657.201 1499.66C656.162 1502.76 657.071 1586.42 659.234 1685.58C667.066 2043.48 652.729 2250.08 612.646 2357.21C599.78 2391.59 603.473 2391.85 629.926 2358.43C721.515 2242.71 750.247 2168.57 765.781 2007.83C776.483 1896.91 777.363 1908.89 755.512 1867.23C712.962 1786.09 706.558 1737.27 731.915 1687.16L744.521 1662.26L733.242 1635.6C690.433 1534.39 662.408 1484.29 657.201 1499.66ZM1203.81 1546.11C1324.78 1598.51 1543.85 1704.54 1543.85 1710.72C1543.85 1713.98 1532.68 1722.47 1519.05 1729.58C1489.34 1745.07 1322.27 1833.12 1262.14 1864.98C1238.59 1877.45 1212.28 1891.35 1203.67 1895.87C1184.96 1905.71 1183.78 1904.74 1165.28 1864.67C1148.87 1829.14 1139.68 1836.68 1276.32 1773.6C1402.68 1715.24 1401.05 1716.46 1371.33 1702.9C1286.66 1664.29 1123.47 1588.42 1118.13 1585.17C1108.53 1579.37 1123.08 1516.56 1134.03 1516.56C1134.87 1516.56 1166.27 1529.86 1203.81 1546.11ZM2347.94 1546.86C2356.22 1582.7 2355.44 1583.97 2314.02 1602.03C2294.5 1610.54 2252.17 1629.91 2219.95 1645.08C2187.71 1660.25 2144.11 1680.5 2123.04 1690.09C2059.53 1718.98 2047.56 1706.88 2217.7 1785.73C2320.11 1833.19 2317.45 1831.06 2304.56 1855.82C2299.09 1866.29 2292.57 1880.44 2290.08 1887.26C2285.45 1899.85 2269.61 1904.33 2260.29 1895.68C2257.93 1893.5 2231.66 1878.99 2201.92 1863.45C2172.16 1847.9 2118.42 1819.55 2082.48 1800.42C2046.52 1781.28 1996.25 1754.92 1970.75 1741.81C1919.67 1715.56 1914.93 1711.47 1927.47 1704.3C1990.14 1668.43 2327.51 1515.14 2337.13 1518.15C2339.61 1518.93 2344.48 1531.85 2347.94 1546.86ZM2569.26 1596.71C2524.39 1730.6 2488.95 1794.32 2422.63 1860.35C2376.55 1906.21 2376.99 1906.74 2436.33 1877.32C2493.45 1848.98 2536.04 1816.69 2569.78 1776.11C2594.28 1746.63 2677.45 1628.48 2677.45 1623.13C2677.45 1621.18 2622.87 1589.31 2588.98 1571.47C2580 1566.74 2578.76 1568.31 2569.26 1596.71ZM2727.11 1660.57C2722.18 1672.47 2723.09 1676.85 2735.58 1701.86C2759.09 1748.91 2751.93 1804.39 2713.12 1875.78C2692.41 1913.9 2690.75 1937.82 2702.16 2034.58C2720.29 2188.31 2758.09 2281.59 2839.79 2374.21C2863.6 2401.2 2864.25 2400.38 2853.62 2356.7C2828.19 2252.19 2821.61 2166.69 2818.56 1900.79L2815.9 1669.8L2797.38 1664.98C2787.2 1662.31 2768.85 1657.25 2756.64 1653.7C2744.4 1650.16 2734.01 1647.27 2733.51 1647.27C2733.02 1647.27 2730.14 1653.26 2727.11 1660.57ZM2669.43 1730.39C2658.89 1743.89 2629.3 1774.49 2603.7 1798.4C2562.06 1837.29 2556.29 1844.58 2549.24 1867.39C2544.9 1881.42 2532.28 1913.88 2521.2 1939.54C2497.06 1995.43 2497.52 1996.41 2536.46 1971.41C2644.72 1901.88 2720.69 1786.65 2699.86 1723.54C2692.45 1701.08 2692.31 1701.11 2669.43 1730.39ZM767.31 1722.76C749.468 1766.2 779.08 1831.98 847.101 1900.01C889.636 1942.55 951.052 1989.8 963.817 1989.8C977.822 1989.8 926.936 1901 892.781 1865.86C849.755 1821.58 819.783 1784.98 793.965 1745.2C772.258 1711.75 771.94 1711.48 767.31 1722.76ZM635.594 1754.3C634.267 2001.86 290.381 2384.37 30.4108 2427.46C-11.7926 2434.45 -12.7301 2431.3 44.4593 2474.84C161.506 2563.97 167.406 2567.69 186.935 2564.59C285.794 2548.97 489.498 2427.07 548.563 2348.22C605.319 2272.43 622.93 2218.38 630.806 2095.7C636.474 2007.56 642.186 1750.93 638.479 1750.93C636.907 1750.93 635.594 1752.44 635.594 1754.3ZM2850.92 1904.16C2854.76 2177.78 2862.82 2224.12 2923.5 2321.47C2977.65 2408.35 3190.8 2542.74 3301.9 2560.04C3319.3 2562.76 3321.78 2561.28 3400.88 2501.43C3506.67 2421.37 3500.79 2429.42 3458.64 2422.63C3210.65 2382.64 2907.65 2064.39 2855.61 1789.23C2849.09 1754.76 2848.89 1759.79 2850.92 1904.16ZM808.893 1981.91C808.518 2076.21 784.373 2172.24 735.535 2273.73C659.797 2431.15 523.711 2522.62 302.064 2565.06C217.196 2581.32 229.514 2585.66 360.667 2585.74C569.174 2585.86 698.092 2542.71 799.157 2438.97C892.377 2343.28 965.605 2218.65 994.496 2106.55C1008.33 2052.83 1008.85 2054.82 977.779 2042.2C944.936 2028.84 899.531 1998.05 850.88 1956.14C829.216 1937.46 810.97 1922.19 810.321 1922.19C809.672 1922.2 809.038 1949.07 808.893 1981.91ZM2616.6 1968.15C2574.71 2005.25 2525.11 2038.91 2487.43 2055.81C2460.94 2067.71 2460.92 2067.72 2463.85 2083.96C2497.03 2267.85 2659.84 2487.5 2808.34 2548.74C2909.05 2590.26 3081.71 2611.33 3199.16 2596.42C3226.05 2593 3234.56 2584.72 3211.17 2584.72C3137.62 2584.72 2970.19 2526.76 2890.4 2473.65C2754 2382.91 2659.71 2189.98 2657.78 1997.69C2657.45 1963.61 2656.15 1935.83 2654.91 1935.98C2653.67 1936.11 2636.43 1950.6 2616.6 1968.15ZM1745.7 1952.26C1763.85 1961.55 1777.72 1964.76 1806.57 1966.35C1842.5 1968.33 1844.22 1968.92 1850.79 1981.64C1859.71 1998.89 1865.88 1996.32 1879.77 1969.58C1893.08 1943.95 1897.71 1941.34 1908.57 1953.33C1953.6 2003.1 1919.72 2124.97 1851.67 2157.91C1829.98 2168.42 1831.41 2164.95 1860.89 2135.45C1905.07 2091.29 1924.38 2036.39 1907.12 2004.11C1899.7 1990.26 1894.97 1991.76 1881.36 2012.33C1866 2035.53 1851.27 2036.92 1845.21 2015.7C1841.11 2001.37 1840.35 2001.01 1809.63 1998.37C1792.35 1996.88 1767.06 1991.3 1753.43 1985.97C1723.52 1974.28 1714.69 1973.98 1692 1983.92C1679.08 1989.57 1661.18 1991.62 1623 1991.81L1571.47 1992.05L1567.4 2007.71C1553.77 2060.31 1584.89 2120.08 1644.58 2155.93C1684.24 2179.74 1683.83 2185.05 1643.79 2165.94C1610.57 2150.09 1575.63 2115.28 1559.49 2081.95C1539.35 2040.31 1552.24 1941.33 1576.49 1951.6C1622.24 1970.98 1654.55 1971.12 1689.9 1952.12C1716.37 1937.88 1717.63 1937.9 1745.7 1952.26ZM906.223 2360.12C867.698 2420.39 817.879 2471.45 744.824 2525.49C721.847 2542.49 715.703 2549.79 711.981 2564.43C666.576 2743.73 595.035 2842.92 464.329 2907.77C430.722 2924.44 428.227 2926.44 444.049 2924.13C521.706 2912.73 671.408 2846.87 707.38 2808.27C723.549 2790.93 730.256 2793.11 730.271 2815.69C730.343 2915.51 793.835 3172.41 821.297 3183.98C827.009 3186.39 858.049 3198.39 890.271 3210.65C922.508 3222.92 959.778 3237.26 973.105 3242.51C1001.43 3253.67 1001.19 3256.87 976.581 3197.67C894.064 2999.03 872.963 2710.58 917.791 2394.07C926.373 2333.44 925.291 2330.27 906.223 2360.12ZM2542.23 2352.64C2542.23 2367.29 2556.47 2453.68 2564.51 2487.82C2582.75 2565.16 2580.26 2928.27 2560.75 3039.92C2552.09 3089.36 2534.76 3165.17 2524.91 3196.53C2518.39 3217.34 2518.95 3217.12 2618.08 3160.85C2728.45 3098.2 2720.38 3105.58 2726.92 3061.09C2729.91 3040.77 2737.24 2992.44 2743.21 2953.7C2759.07 2850.78 2760.75 2859.09 2715.73 2817.65C2674.64 2779.81 2660.13 2759.06 2645.91 2717.72C2631.19 2674.96 2636.03 2673.39 2661.21 2712.76C2733.49 2825.73 2856.89 2901.97 3026.76 2938.59C3045.41 2942.61 3042.16 2940.39 2990.7 2914C2873.21 2853.71 2794.84 2745.75 2760.39 2596.69L2752.22 2561.34L2706.79 2526.15C2649.55 2481.85 2585.79 2415.23 2563.04 2376.02C2544.65 2344.33 2542.23 2341.59 2542.23 2352.64ZM642.373 2573.76C629.969 2577.21 613.742 2580.11 606.314 2580.18C581.679 2580.45 574.9 2585.11 558.991 2612.71C512.374 2693.52 396.769 2755.62 304.92 2749.18L272.77 2746.93L306.579 2763.85C340.056 2780.6 340.892 2780.76 394.894 2780.76H449.415L493.392 2758.93C554.952 2728.37 671.668 2604.94 671.668 2570.4C671.668 2565.83 670.355 2565.97 642.373 2573.76ZM2794.64 2582.37C2794.64 2592.23 2850.36 2668.67 2879.77 2699.15C2973.75 2796.54 3082.41 2823.22 3172.48 2771C3196.63 2756.99 3195.43 2755.58 3163.19 2759.95C3073.67 2772.11 2954.89 2708.62 2904.81 2621.86C2898.03 2610.1 2891.83 2599.72 2891.05 2598.77C2890.26 2597.83 2872.8 2594.4 2852.26 2591.15C2831.72 2587.91 2810.35 2583.88 2804.78 2582.21C2799.2 2580.52 2794.64 2580.6 2794.64 2582.37Z" fill="#F9F8F8"/>
</svg>
