<?xml version="1.0" standalone="no"?>
<!DOCTYPE svg PUBLIC "-//W3C//DTD SVG 20010904//EN"
 "http://www.w3.org/TR/2001/REC-SVG-20010904/DTD/svg10.dtd">
<svg version="1.0" xmlns="http://www.w3.org/2000/svg"
 width="650.000000pt" height="650.000000pt" viewBox="0 0 650.000000 650.000000"
 preserveAspectRatio="xMidYMid meet">
<metadata>
Created by potrace 1.11, written by Peter Selinger 2001-2013
</metadata>
<g transform="translate(0.000000,650.000000) scale(0.100000,-0.100000)"
fill="#000000" stroke="none">
<path d="M4073 6088 c-27 -13 -38 -41 -24 -66 8 -15 32 -20 146 -32 155 -15
142 -2 111 -113 -9 -32 -16 -75 -16 -96 0 -33 -12 -116 -25 -178 -4 -19 -12
-23 -40 -23 -28 0 -222 -33 -321 -55 -12 -3 -25 -15 -28 -27 -4 -13 -30 -38
-59 -57 -28 -19 -126 -89 -217 -156 -340 -251 -588 -410 -899 -576 -392 -210
-872 -414 -1386 -590 -316 -109 -883 -268 -1140 -320 -88 -17 -164 -36 -170
-41 -6 -6 -1 -7 15 -4 14 4 99 22 190 41 450 94 1147 311 1650 513 715 288
1184 549 1774 987 230 170 226 168 263 150 28 -14 41 -13 163 10 150 28 170
30 170 13 0 -6 -11 -39 -24 -72 -29 -73 -50 -181 -71 -371 -24 -218 -85 -601
-111 -700 -34 -129 -70 -327 -89 -495 -9 -80 -27 -208 -40 -285 -29 -165 -45
-319 -45 -420 0 -64 -3 -74 -19 -80 -11 -3 -25 -22 -32 -43 -27 -86 -65 -163
-124 -252 -107 -163 -99 -191 -89 315 4 242 7 683 5 980 -2 454 -5 548 -18
588 -19 60 -42 71 -115 56 -29 -6 -71 -15 -93 -19 -40 -9 -181 -65 -200 -81
-6 -4 -51 -28 -100 -53 -106 -52 -172 -101 -240 -176 -28 -30 -52 -57 -55 -60
-31 -29 -86 -110 -112 -166 l-33 -69 -7 -235 c-3 -129 -11 -269 -17 -310 -13
-96 -14 -348 -1 -537 15 -243 19 -594 6 -598 -6 -1 -81 -11 -166 -21 -123 -15
-242 -19 -571 -22 l-415 -2 -12 91 c-10 68 -11 254 -6 740 7 618 6 650 -11
669 -23 25 -44 25 -148 1 -45 -11 -107 -24 -138 -31 -31 -6 -83 -27 -115 -46
-33 -20 -80 -47 -106 -60 -27 -13 -48 -26 -48 -28 0 -1 -7 -47 -16 -102 -8
-54 -19 -187 -24 -294 -5 -107 -14 -250 -20 -317 -6 -67 -10 -232 -8 -365 l3
-243 -185 2 c-102 2 -214 7 -250 13 -36 6 -110 12 -165 15 -55 3 -124 9 -152
13 l-53 8 0 -46 0 -47 68 -11 c100 -16 330 -34 572 -43 118 -4 294 -11 390
-15 205 -9 221 -9 792 -6 332 2 454 6 512 17 84 16 260 31 550 45 103 5 196
12 206 15 10 3 67 9 126 14 101 8 116 11 204 55 52 25 105 46 117 46 13 0 27
10 34 23 7 12 43 58 80 101 38 44 69 83 69 87 0 4 25 44 56 89 30 45 66 109
79 143 l23 62 208 3 c115 2 256 -1 314 -7 58 -6 166 -16 240 -22 74 -6 214
-22 310 -36 96 -14 227 -29 292 -34 64 -5 174 -20 245 -34 121 -24 143 -26
421 -24 l292 1 71 34 c62 30 80 34 150 34 l79 0 0 50 0 50 -82 1 c-59 0 -77 3
-61 9 33 13 36 45 13 150 -11 53 -23 153 -25 225 -3 72 -8 145 -10 163 l-4 32
85 0 84 0 0 55 0 55 -92 0 c-51 0 -109 -5 -129 -10 -43 -12 -65 -46 -55 -87 4
-15 11 -100 16 -188 9 -181 43 -373 69 -392 15 -11 14 -12 -4 -20 -11 -4 -40
-20 -65 -34 -41 -25 -57 -27 -195 -34 l-150 -6 -24 93 c-22 85 -25 121 -32
433 -4 187 -12 392 -19 455 -6 63 -15 250 -19 415 -10 396 -10 397 -165 411
l-75 7 -6 46 c-3 25 -37 143 -75 261 -39 118 -82 264 -96 323 l-27 108 22 15
c46 33 11 94 -54 94 -16 0 -52 7 -79 15 -27 8 -66 15 -88 15 -35 0 -39 3 -53
38 -9 20 -51 114 -94 207 -60 132 -75 172 -65 178 28 16 36 47 20 72 l-15 23
-393 5 c-216 3 -409 8 -428 10 -19 3 -45 0 -57 -5z m938 -312 c49 -109 87
-201 84 -204 -2 -3 -62 0 -132 7 -71 6 -157 11 -193 11 l-65 0 -32 73 c-17 39
-35 83 -39 97 -4 13 -33 68 -65 122 l-58 98 205 -2 206 -3 89 -199z m-571 133
c0 -5 -4 -9 -10 -9 -5 0 -10 7 -10 16 0 8 5 12 10 9 6 -3 10 -10 10 -16z m-45
-226 c-4 -53 -11 -93 -17 -93 -7 0 -8 17 -4 48 3 26 9 81 13 122 10 103 17 39
8 -77z m135 73 c11 -25 20 -50 20 -56 0 -6 11 -33 25 -60 l25 -49 -23 -3 c-12
-2 -37 -1 -56 1 l-34 3 7 61 c3 33 6 80 6 103 0 24 2 44 5 44 2 0 14 -20 25
-44z m-150 -528 c0 -229 -3 -274 -21 -348 -24 -100 -38 -199 -47 -330 l-7 -95
-73 -5 c-41 -3 -75 -4 -76 -2 -2 1 5 55 15 120 27 173 56 384 69 497 16 145
27 197 67 318 29 84 40 107 55 107 17 0 18 -15 18 -262z m250 247 c0 -27 70
-198 109 -265 20 -36 52 -108 70 -160 37 -110 104 -341 99 -345 -2 -2 -64 0
-138 4 -74 4 -145 4 -157 -1 -39 -13 -39 -50 2 -243 4 -20 3 -20 -100 -6
l-105 15 0 58 c0 71 14 168 46 318 22 105 24 137 24 371 0 141 3 259 7 262 3
4 37 7 75 7 54 0 68 -3 68 -15z m325 5 c55 -5 123 -12 151 -16 l52 -6 72 -152
c64 -132 206 -467 246 -579 l14 -38 -208 2 c-114 1 -219 4 -234 7 -25 4 -30
13 -58 106 -75 246 -126 386 -161 446 -35 61 -99 209 -99 230 0 12 95 12 225
0z m323 -39 c30 -4 57 -13 62 -20 4 -7 22 -70 40 -140 18 -69 60 -211 95 -316
34 -104 65 -209 68 -232 5 -39 3 -43 -18 -43 -18 0 -26 12 -48 68 -57 153
-170 416 -236 556 -70 147 -71 148 -44 141 16 -3 52 -10 81 -14z m-423 -842
c50 -6 94 -15 100 -20 12 -12 52 -12 60 1 11 18 33 11 28 -8 -2 -11 3 -88 11
-173 26 -255 37 -605 32 -1016 -3 -213 -8 -397 -12 -406 -4 -11 -15 -17 -28
-15 -21 3 -21 8 -27 253 -3 157 -10 260 -17 278 -15 36 -65 57 -152 64 -60 5
-70 3 -90 -17 -21 -21 -22 -28 -16 -113 4 -51 11 -119 16 -152 5 -33 13 -108
17 -167 9 -122 15 -115 -78 -102 l-44 6 3 107 c3 112 16 262 33 371 20 133 30
293 35 593 5 260 3 323 -11 400 -9 51 -18 100 -21 110 -6 21 27 22 161 6z
m613 -19 l63 0 21 -47 c24 -55 26 -58 34 -51 3 3 -1 21 -9 39 -21 51 -14 59
46 52 29 -3 57 -10 62 -15 6 -5 13 -133 17 -316 4 -169 12 -352 19 -407 7 -57
13 -245 14 -435 1 -325 2 -338 27 -427 l25 -93 -86 0 c-52 0 -133 10 -206 25
-66 14 -166 28 -222 32 l-103 6 8 26 c4 14 7 294 6 621 0 483 -4 625 -17 755
-9 88 -17 180 -17 204 l0 44 128 -6 c70 -4 155 -7 190 -7z m-1981 -122 c-3 -7
-5 -2 -5 12 0 14 2 19 5 13 2 -7 2 -19 0 -25z m1039 -99 c47 -8 68 -8 85 1
l22 12 -7 -273 c-7 -275 -19 -468 -35 -589 -24 -166 -30 -244 -32 -364 l-1
-129 -89 6 -89 7 0 -25 c0 -22 -4 -25 -37 -25 -24 0 -33 3 -25 8 14 10 16 46
31 632 5 212 14 408 19 435 5 28 13 106 17 175 4 69 9 128 12 133 6 10 56 9
129 -4z m-240 -131 c-3 -68 -11 -143 -17 -168 -9 -38 -26 -527 -32 -957 l-2
-123 -117 0 c-64 0 -119 4 -123 9 -3 6 13 11 36 13 24 2 44 9 47 16 3 9 -14
12 -62 12 l-66 0 0 90 c0 113 14 244 45 425 13 77 29 187 35 245 28 274 87
545 119 553 9 3 45 5 80 6 l64 1 -7 -122z m-792 -548 c-4 -107 -9 -411 -13
-675 l-6 -480 -95 -46 c-84 -41 -106 -47 -185 -52 -50 -4 -135 -11 -190 -17
-91 -8 -274 -14 -276 -7 -3 7 -20 560 -25 798 -5 222 -3 296 10 382 9 59 16
132 16 162 0 40 4 55 14 55 7 0 24 10 38 23 14 13 54 46 89 73 35 27 87 70
116 95 28 26 89 68 135 95 46 26 106 64 133 85 72 52 129 79 168 79 20 0 40 7
48 17 12 14 15 -13 22 -188 4 -112 5 -292 1 -399z m-755 256 c9 -10 8 -15 -4
-20 -10 -4 -15 1 -15 14 0 24 4 25 19 6z m-1404 -909 c-6 -417 -5 -549 5 -605
7 -40 11 -75 8 -77 -3 -3 -106 -3 -229 1 l-224 7 3 241 c1 133 7 288 12 346 5
58 15 185 22 283 10 145 15 177 27 177 8 0 44 19 79 43 54 35 156 74 301 116
2 1 0 -239 -4 -532z m4888 -163 c-9 -24 -48 -34 -126 -33 l-72 1 77 13 c42 8
85 18 95 24 26 15 33 13 26 -5z"/>
<path d="M3885 6043 c-135 -77 -603 -300 -936 -446 -520 -227 -654 -281 -1069
-432 -741 -270 -1227 -425 -1694 -541 -162 -40 -209 -54 -179 -54 17 0 363 87
508 128 371 105 758 234 1345 447 426 155 572 213 1075 432 461 201 973 449
1020 494 18 18 -10 7 -70 -28z"/>
<path d="M4134 2775 c-8 -13 -13 -32 -10 -43 4 -12 -1 -25 -14 -37 -37 -34
-17 -81 50 -115 99 -51 192 -1 156 83 -25 59 -110 137 -148 137 -10 0 -25 -11
-34 -25z"/>
<path d="M4853 2715 c-66 -28 -54 -120 27 -203 41 -41 74 -50 100 -27 24 21
26 62 6 110 -9 21 -11 37 -5 40 16 11 10 64 -8 74 -31 16 -89 19 -120 6z"/>
<path d="M5642 2645 c-15 -19 -19 -35 -16 -54 4 -20 1 -30 -10 -34 -24 -9 -21
-73 3 -87 37 -20 81 -12 113 21 28 28 30 34 24 77 -12 90 -72 130 -114 77z"/>
<path d="M6403 2587 l-17 -24 -33 19 c-40 24 -71 20 -94 -12 -40 -53 16 -140
89 -140 25 0 44 -8 63 -26 19 -18 33 -24 48 -19 30 9 44 40 31 65 -6 11 -8 24
-5 29 2 5 7 28 10 51 4 32 1 48 -11 61 -23 26 -59 24 -81 -4z"/>
<path d="M4000 1943 c-173 -9 -331 -38 -404 -75 -88 -44 -126 -96 -172 -239
-34 -106 -47 -126 -87 -133 -18 -3 -131 -8 -252 -11 -121 -3 -251 -10 -290
-15 -151 -20 -195 -21 -289 -11 -96 11 -101 13 -169 63 -108 78 -160 98 -285
109 -125 11 -129 15 -161 116 -29 95 -75 171 -107 179 -43 11 -175 -3 -244
-26 -36 -12 -123 -33 -195 -46 -138 -27 -210 -54 -262 -98 -47 -39 -54 -76
-31 -160 22 -81 14 -101 -36 -92 -112 21 -271 36 -391 36 -77 0 -239 9 -360
20 -293 26 -265 29 -265 -25 0 -28 5 -47 13 -50 29 -10 410 -37 632 -45 243
-9 273 -12 334 -31 44 -15 95 -5 143 26 58 38 63 62 34 155 -22 73 -23 80 -7
93 35 32 88 49 231 77 82 17 167 37 188 45 21 9 71 19 110 24 l72 7 14 -30 c7
-17 22 -56 31 -86 47 -148 73 -168 234 -185 127 -13 141 -18 260 -99 56 -39
96 -58 138 -66 71 -15 275 -16 363 -2 36 6 166 14 290 17 241 7 317 16 347 43
34 30 61 76 78 132 48 156 73 193 157 230 55 24 197 46 360 56 l117 6 35 -75
c41 -85 105 -150 165 -167 20 -5 79 -10 131 -10 81 0 103 -4 150 -26 30 -14
140 -46 244 -70 179 -42 193 -47 260 -94 81 -56 120 -73 226 -103 72 -20 95
-21 579 -20 277 1 519 4 537 8 33 6 34 7 34 57 0 50 0 50 -27 43 -16 -4 -247
-9 -515 -11 l-486 -4 -99 25 c-59 15 -118 38 -148 57 -138 87 -157 96 -252
117 -167 37 -276 68 -338 95 -52 22 -74 26 -167 26 -106 0 -108 0 -144 32 -22
19 -50 61 -69 104 -18 40 -44 79 -57 87 -25 16 -110 25 -198 20z"/>
<path d="M4694 1929 c-40 -11 -50 -24 -58 -74 -6 -34 -3 -44 13 -59 17 -15 25
-16 55 -6 19 6 40 18 46 26 7 7 22 14 34 14 24 0 66 34 66 53 0 7 -7 23 -16
35 -12 18 -24 22 -62 21 -26 0 -61 -5 -78 -10z"/>
<path d="M5510 1819 c-74 -10 -96 -45 -70 -113 37 -99 240 -58 240 49 0 8 -10
25 -22 39 -27 29 -69 36 -148 25z"/>
<path d="M6107 1799 c-61 -36 -48 -144 19 -150 69 -7 93 6 101 54 5 33 2 40
-33 72 -39 36 -57 41 -87 24z"/>
</g>
</svg>
